# xmcd CD database file
#
# Track frame offsets:
#	150
#	16652
#	35854
#	56856
#	76658
#	93385
#	106512
#	121439
#	138466
#	156768
#	173345
#	189022
#	202374
#	222326
#
# Disc length: 3271 seconds
#
# Revision: 4
# Processed by: cddbd v1.5.1PL0 Copyright (c) Steve Scherf et al.
# Submitted via: CDex 1.51
#
DISCID=b40cc50e
DTITLE=Nirvana - Nirvana - MTV Unplugged In New York
DYEAR=1994
DGENRE=New Age
TTITLE0=About A Girl
TTITLE1=Come As You Are
TTITLE2=Jesus Doesn't Want Me For A Sunbeam
TTITLE3=The Man Who Sold The World
TTITLE4=Pennyroyal Tea
TTITLE5=Dumb
TTITLE6=Polly
TTITLE7=On A Plain
TTITLE8=Something In The Way
TTITLE9=Plateau
TTITLE10=Oh, Me
TTITLE11=Lake Of Fire
TTITLE12=All Apologies
TTITLE13=Where Did You Sleep Last Night
EXTD=YEAR: 1994
EXTT0=
EXTT1=
EXTT2=
EXTT3=
EXTT4=
EXTT5=
EXTT6=
EXTT7=
EXTT8=
EXTT9=
EXTT10=
EXTT11=
EXTT12=
EXTT13=
PLAYORDER=
